<?xml version="1.0" encoding="utf-8"?>

<!DOCTYPE svg PUBLIC "-//W3C//DTD SVG 1.1//EN" "http://www.w3.org/Graphics/SVG/1.1/DTD/svg11.dtd">
<svg version="1.1" id="Layer_1" xmlns="http://www.w3.org/2000/svg" xmlns:xlink="http://www.w3.org/1999/xlink" x="0px" y="0px"
	 viewBox="0 0 2632.734 1086.637" enable-background="new 0 0 2632.734 1086.637" xml:space="preserve">
<g>
	<path d="M1134.788,33.545c28.12,0.172,56.608,4.737,82.353,16.376c0.053,0.752,0.158,2.256,0.211,3.009
		c-23.191-0.854-71.619-10.556-106.989-0.594c-29.639,7.62-55.45,14.395-64.024,22.168c15.309,8.336,56.536,6.126,86.892,9.949
		c51.49,7.981,116.084,39.587,154.914,77.338c-0.409,0.633-1.254,1.913-1.663,2.547c-102.178-38.743-178.727-84.544-330.268-41.5
		c-4.592,0.858-9.487,3.497-14.119,1.676C938.574,117.093,1007.291,33.279,1134.788,33.545z"/>
	<path d="M893.576,140.823c0.277,0.713,0.845,2.124,1.122,2.837c-82.892,48.827-176.568,117.421-241.899,187.626
		c-139.274,148.648-115.197,332.746-166.276,297.57c-15.773-10.601-36.493-60.162-134.052-54.84
		c-0.132-0.739-0.383-2.243-0.515-2.995c120.976-39.297,78.894-42.936,246.609-223.979
		C682.385,256.776,775.668,176.389,893.576,140.823z"/>
	<path d="M988.912,202.063c133.052-10.753,273.053,84.821,375.41,169.152c26.886,20.628,116.221,55.441,204.925,105.168
		c145.39,81.572,203.207,157.696,203.922,166.223c-2.85,1.861-5.384-0.937-7.719-2.27
		c-80.02-57.686-284.868-211.998-480.287-212.064c-115.378,1.666-183.839,41.935-243.891,62.124
		c-52.792,17.588-97.792,8.409-112.834-7.891c-26.142-28.004-18.729-84.878-42.925-125.858
		c-15.921-29.447-47.01-50.182-20.215-96.511C888.489,220.983,943.262,205.606,988.912,202.063 M952.572,263.066
		c-17.788,3.959-32.632,23.91-25.731,42.054c6.809,15.821,21.113,27.315,26.76,43.796c5.058,12.736-3.124,42.896,16.824,65.317
		c38.34,43.696,129.037-22.568,221.103-32.672c36.248-4.011,72.878-3.932,109.179-0.818
		C1194.511,304.982,1080.841,237.777,952.572,263.066z"/>
	<path d="M2295.022,364.539c-0.528,0.567-1.596,1.702-2.138,2.27c-113.348-40.318-272.209-6.182-336.035,28.199
		c-89.132,47.209-145.751,142.949-134.303,199.185c0.383,2.863,2.23,6.255-0.66,8.432c-28.966-23.775-103.702-94.91-181.793-147.103
		c-45.595-30.369-101.395-43.565-126.373-64.895c-19.25-17.256-18.113-41.854-4.302-49.734
		c24.533-14.59,165.448,52.691,279.77,49.285C1912.316,387.232,2126.01,263.899,2295.022,364.539z"/>
	<path d="M348.908,329.98c52.746,10.543,106.968,52.527,147.195,87.763c-163.517-90.901-209.765-52.945-239.101-40.088
		c-0.33-1.623-1.94-3.259-0.897-4.896C269.848,340.675,303.258,320.969,348.908,329.98z"/>
	<path d="M737.025,356.674c65.606,67.286,121.717,154.062,149.781,242.849c21.453,71.5,24.186,190.588,23.013,265.175
		c326.755-21.397,621.971-37.205,939.673,52.584c-240.921-11.426-321.002-40.175-620.951-17.154
		c-265.771,20.682-307.033,42.243-352.463,31.959c-20.954-4.104-40.747-16.046-51.977-34.532
		C896.122,572.723,775.613,449.85,737.025,356.674z"/>
	<path d="M330.302,396.604c-0.026,0.752-0.079,2.243-0.092,2.995c-319.089,154.438-192.876,519.794,28.74,563.867
		c68.299,14.154,219.221,1.357,287.542-63.061c0.713,0.356,2.138,1.082,2.85,1.438c-123.776,184.065-371.956,197.923-516.298,54.022
		C-74.164,749.748,79.311,405.557,330.302,396.604z"/>
	<path d="M2283.978,434.052c0.198-0.713,0.607-2.138,0.818-2.863c130.398-0.101,307.278,118.939,311.465,298.929
		c6.053,221.469-220.247,375.356-423.995,297.9c-71.031-26.787-132.429-79.832-167.107-147.578c0.501-0.462,1.504-1.372,2.006-1.821
		c83.126,53.997,193.961,97.397,291.421,81.178C2475.282,931.389,2645.299,641.53,2283.978,434.052z"/>
	<path d="M1207.891,497.087c6.516,8.84,7.934,28.905,0.686,36.367c-3.101,2.454-6.928,3.721-10.438,5.45
		c-73.748,34.52-80.313,28.516-159.995,35.443c-9.631,1.681-17.694-0.105-11.981,26.813c9.964,39.357,48.174,107.484,63.998,122.124
		c1.425,1.082,1.478,3.47-0.172,4.42c-3.167,1.992-7.112,1.9-10.702,2.19c-72.011,1.331-53.118-30.203-102.014-127.323
		c-38.632-83.906,17.491-38.667,122.216-68.735C1178.964,511.121,1199.952,485.619,1207.891,497.087z"/>
	<path d="M2254.13,513.33c45.511,16.046,82.999,52.452,101.143,97.079c-1.57,1.28-3.048,1.32-4.434,0.106
		c-118.71-85.274-213.995-0.294-234.034,65.964c-19.223,60.862,20.578,123.873,67.956,166.447c2.019,1.28-0.198,4.552-2.335,3.22
		c-46.079-5.186-89.043-30.943-116.37-68.26C1965.066,641.829,2100.126,457.19,2254.13,513.33z"/>
	<path d="M1188.757,562.259c22.802,1.992,44.257,10.556,66.386,15.821c26.993,6.849,68.302,4.865,102.489,17.603
		c15.224,3.6-23.536,39.239-38.32,77.352c-2.072,4.83-2.217,11.084-7.06,14.185c-8.117,5.597-50.702,21.744-34.493-12.087
		c11.278-22.355,36.263-36.513,34.572-60.62c-29.134-8.529-61.372,3.554-138.856-28.753
		C1163.717,582.345,1176.499,560.714,1188.757,562.259z"/>
	<path d="M1518.498,575.903c14.86,13.011,11.003,45.699,42.239,42.727c18.899-3.35,33.045-26.269,42.529-32.777
		c0.475,0.224,1.399,0.686,1.861,0.91c12.646,22.966,16.315,49.189-5.516,63.299c-19.04,13.573-47.94,2.115-61.135,2.072
		c-6.888,2.652-6.756,11.256-8.036,17.339c-2.197,17.831-19.026,33.538-47.635,23.871c-27.268-9.942-32.247-20.757-26.14-20.334
		c22.585,0.447,43.933-23.988,44.469-40.497c-0.738-42.68-37.912-44.779-39.679-51.594
		C1462.955,575.554,1502.897,562.469,1518.498,575.903z"/>
	<path d="M474.515,683.855c1.334,40.835-29.506,76.056-69.395,81.904c-1.333-3.484,2.415-5.252,4.341-7.442
		c13.961-13.604,24.583-32.038,24.662-51.95c0.154-27.173-32.302-100.954-118.614-44.403c-0.435-0.475-1.32-1.412-1.755-1.874
		C341.611,575.964,472.397,593.76,474.515,683.855z"/>
	<path d="M1146.215,640.02c7.125-2.045,10.688-9.712,17.563-12.193c15.275-2.497,15.06,32.569,20.453,45.049
		c2.253,5.098,8.752,11.408,13.75,3.193c4.323-7.658,10.472-34.369,22.393-29.017c8.998,4.903,5.231,10.961,34.387,9.62
		c0.779,1.927,0.383,3.563-1.583,4.486c-54.227,39.964-45.691,93.261-20.651,104.349c4.659,2.184,235.337,20.838,449.779-8.815
		c66.083-9.065,131.664-21.601,196.783-35.984c0.132,0.726,0.37,2.177,0.501,2.903c-51.888,34.914-63.523,57.189-8.392,101.341
		c-0.092,0.699-0.29,2.098-0.383,2.797c-114.704-26.856-295.687-45.122-559.367-26.879c-94.63,6.286-107.546-3.265-127.402-35.535
		c-29.783-49.938-39.302-108.264-77.088-117.07c-2.468,0.29-2.164-4.038,0.053-3.655
		C1120.049,642.962,1133.442,643.569,1146.215,640.02z"/>
	<path d="M2292.053,699.716c20.045,36.609-19.456,78.318-59.076,62.995c-18.632-6.519-32.091-25.995-30.178-45.867
		C2205.648,671.762,2270.694,658.327,2292.053,699.716z"/>
</g>
</svg>
